<?xml version="1.0" encoding="UTF-8"?>
<svg enable-background="new 0 0 100 100" version="1.1" viewBox="0 0 100 100" xml:space="preserve" xmlns="http://www.w3.org/2000/svg">
<path d="m50 25c15.8 0 29.9 8.9 36.8 22.9-6.9 14-21 22.9-36.8 22.9s-29.9-8.8-36.7-22.9c6.8-14 20.9-22.9 36.7-22.9m0-8.3c-20.8 0-38.6 13-45.8 31.3 7.2 18.3 25 31.2 45.8 31.2s38.6-13 45.8-31.2c-7.2-18.4-25-31.3-45.8-31.3zm0 20.8c5.8 0 10.4 4.7 10.4 10.4s-4.6 10.4-10.4 10.4-10.4-4.7-10.4-10.4 4.6-10.4 10.4-10.4m0-8.3c-10.3 0-18.8 8.4-18.8 18.8s8.5 18.7 18.8 18.7 18.8-8.4 18.8-18.7-8.5-18.8-18.8-18.8z"/>
</svg>
