<?xml version="1.0" encoding="UTF-8"?>
<svg enable-background="new 0 0 100 100" version="1.1" viewBox="0 0 100 100" xml:space="preserve" xmlns="http://www.w3.org/2000/svg">
<path d="m50 25c15.8 0 29.9 8.9 36.8 22.9-2.5 5.1-5.9 9.5-10 13l5.9 5.9c5.8-5.1 10.4-11.5 13.2-18.9-7.2-18.3-25-31.3-45.8-31.3-5.3 0-10.4 0.8-15.2 2.4l6.9 6.9c2.6-0.5 5.4-0.9 8.2-0.9zm-4.5 4.8 8.6 8.6c2.4 1 4.3 3 5.3 5.3l8.6 8.6c0.3-1.4 0.6-2.9 0.6-4.5 0-10.3-8.4-18.7-18.7-18.7-1.4 0.1-2.9 0.3-4.4 0.7zm-37.1-13.7 11.2 11.2c-6.8 5.3-12.2 12.4-15.4 20.6 7.2 18.3 25 31.2 45.8 31.2 6.3 0 12.4-1.2 18-3.4l14.2 14.3 5.9-5.9-73.9-73.9-5.8 5.9zm31.2 31.3 10.9 10.9c-0.2 0-0.3 0.1-0.5 0.1-5.8 0-10.4-4.7-10.4-10.4v-0.6zm-14.1-14.2 7.3 7.3c-1 2.3-1.5 4.8-1.5 7.4 0 10.3 8.4 18.8 18.8 18.8 2.6 0 5.1-0.5 7.4-1.5l4.1 4.1c-3.7 1-7.5 1.6-11.5 1.6-15.8 0-29.9-8.9-36.8-22.9 2.9-6 7.1-11 12.2-14.8z"/>
</svg>

